<?xml version="1.0" encoding="UTF-8" standalone="no"?>
<!-- Created with Inkscape (http://www.inkscape.org/) -->

<svg
   xmlns:dc="http://purl.org/dc/elements/1.1/"
   xmlns:cc="http://creativecommons.org/ns#"
   xmlns:rdf="http://www.w3.org/1999/02/22-rdf-syntax-ns#"
   xmlns:svg="http://www.w3.org/2000/svg"
   xmlns="http://www.w3.org/2000/svg"
   xmlns:sodipodi="http://sodipodi.sourceforge.net/DTD/sodipodi-0.dtd"
   xmlns:inkscape="http://www.inkscape.org/namespaces/inkscape"
   width="139.41148mm"
   height="31.738079mm"
   viewBox="0 0 139.41148 31.738079"
   version="1.1"
   id="svg3551"
   inkscape:version="0.92.0 r15299"
   sodipodi:docname="allen bradley.svg">
  <defs
     id="defs3545" />
  <sodipodi:namedview
     id="base"
     pagecolor="#ffffff"
     bordercolor="#666666"
     borderopacity="1.0"
     inkscape:pageopacity="0.0"
     inkscape:pageshadow="2"
     inkscape:zoom="0.35"
     inkscape:cx="654.42216"
     inkscape:cy="-119.05514"
     inkscape:document-units="mm"
     inkscape:current-layer="layer1"
     showgrid="false"
     fit-margin-top="0"
     fit-margin-left="0"
     fit-margin-right="0"
     fit-margin-bottom="0"
     inkscape:window-width="1280"
     inkscape:window-height="744"
     inkscape:window-x="-4"
     inkscape:window-y="-4"
     inkscape:window-maximized="1" />
  <metadata
     id="metadata3548">
    <rdf:RDF>
      <cc:Work
         rdf:about="">
        <dc:format>image/svg+xml</dc:format>
        <dc:type
           rdf:resource="http://purl.org/dc/dcmitype/StillImage" />
        <dc:title></dc:title>
      </cc:Work>
    </rdf:RDF>
  </metadata>
  <g
     inkscape:label="Layer 1"
     inkscape:groupmode="layer"
     id="layer1"
     transform="translate(160.67598,-85.595245)">
    <g
       transform="translate(33.547298,-72.532448)"
       id="g3496">
      <path
         style="fill:#003e7e;stroke-width:0.26458332"
         inkscape:connector-curvature="0"
         class="cls-1"
         d="m -154.50938,163.52513 h 3.43958 l 0.71438,13.75834 h -2.89454 l -0.0185,-2.91042 h -3.66184 l -1.25148,2.91042 h -2.88395 z m -1.45256,8.56721 h 2.6961 l -0.0159,-6.16744 h -0.0397 z"
         id="path3248" />
      <path
         style="fill:#003e7e;stroke-width:0.26458332"
         inkscape:connector-curvature="0"
         class="cls-1"
         d="m -146.4634,163.52513 h 2.64583 l -2.91041,13.75834 h -2.64584 z"
         id="path3250" />
      <path
         style="fill:#003e7e;stroke-width:0.26458332"
         inkscape:connector-curvature="0"
         class="cls-1"
         d="m -141.84907,163.52513 h 2.64584 l -2.91042,13.75834 h -2.64583 z"
         id="path3252" />
      <path
         style="fill:#003e7e;stroke-width:0.26458332"
         inkscape:connector-curvature="0"
         class="cls-1"
         d="m -136.95428,172.49451 -0.17462,0.83873 c -0.26458,1.21179 -0.18521,2.40241 0.79375,2.40241 0.88371,0 1.39435,-0.66939 1.81769,-1.94204 h 2.38125 c -0.60855,2.40506 -2.04788,3.75444 -4.55084,3.75444 -3.85233,0 -3.37873,-2.96333 -2.82839,-5.55625 0.59002,-2.77019 1.67746,-5.34458 5.25727,-5.34458 3.09827,0 3.34962,2.07433 2.67229,5.24933 l -0.12435,0.59531 z m 3.048,-1.5875 c 0.27782,-1.5875 0.26459,-2.46592 -0.82285,-2.46592 -1.08744,0 -1.60073,1.09802 -1.80446,2.0611 l -0.0847,0.40482 z"
         id="path3254" />
      <path
         style="fill:#003e7e;stroke-width:0.26458332"
         inkscape:connector-curvature="0"
         class="cls-1"
         d="m -129.13055,166.91709 h 2.54265 l -0.26458,1.21444 h 0.037 a 3.6009791,3.6009791 0 0 1 2.95804,-1.48167 c 1.65364,0 2.44475,0.89958 2.00819,2.94217 l -1.62984,7.67291 h -2.64583 l 1.51871,-7.14375 c 0.2196,-1.02129 -0.045,-1.43668 -0.83873,-1.43668 -0.90488,0 -1.524,0.55827 -1.77006,1.7145 l -1.45786,6.87916 h -2.64583 z"
         id="path3256" />
      <path
         style="fill:#003e7e;stroke-width:0.26458332"
         inkscape:connector-curvature="0"
         class="cls-1"
         d="m -114.89332,170.56834 -0.48154,2.27277 h -5.4266 l 0.47889,-2.27277 z"
         id="path3258" />
      <path
         style="fill:#003e7e;stroke-width:0.26458332"
         inkscape:connector-curvature="0"
         class="cls-1"
         d="m -111.58867,163.52513 h 4.64079 c 2.27012,0 3.72533,0.84931 3.175,3.48456 -0.31485,1.48167 -1.26471,2.62203 -2.71463,3.00038 v 0.045 c 1.47373,0.20902 2.21192,1.3626 1.82034,3.19087 -0.45509,2.159 -1.91029,4.02696 -5.14615,4.02696 h -4.69371 z m 1.57427,5.64092 h 0.79375 c 1.51871,0 2.32569,-0.52917 2.59821,-1.80711 0.27252,-1.27793 -0.26459,-1.79122 -1.6219,-1.79122 h -1.00012 z m -1.28852,6.06425 h 1.0795 c 1.32291,0 2.33362,-0.4789 2.67229,-2.07963 0.33867,-1.60073 -0.46567,-2.0611 -1.6801,-2.0611 h -1.19328 z"
         id="path3260" />
      <path
         style="fill:#003e7e;stroke-width:0.26458332"
         inkscape:connector-curvature="0"
         class="cls-1"
         d="m -101.68532,166.91709 h 2.542648 l -0.296333,1.38906 h 0.03969 c 0.751417,-1.00012 1.640417,-1.651 2.738437,-1.651 a 3.2093958,3.2093958 0 0 1 0.47625,0.037 l -0.545041,2.53736 c -0.264584,-0.0212 -0.550334,-0.037 -0.814917,-0.037 a 2.3124583,2.3124583 0 0 0 -2.362729,1.86796 l -1.322915,6.2177 h -2.64584 z"
         id="path3262" />
      <path
         style="fill:#003e7e;stroke-width:0.26458332"
         inkscape:connector-curvature="0"
         class="cls-1"
         d="m -95.972964,170.09209 0.05292,-0.26458 c 0.508,-2.38125 2.31775,-3.19088 4.318,-3.19088 3.159125,0 3.473979,1.30175 3.077104,3.175 l -1.156229,5.44513 c -0.203729,0.96308 -0.240771,1.40758 -0.0979,2.00554 h -2.537354 a 3.7517916,3.7517916 0 0 1 -0.100542,-1.0795 h -0.03969 c -0.846667,1.0795 -1.653646,1.34937 -2.923646,1.34937 -1.852084,0 -2.166938,-1.5875 -1.87325,-2.96333 0.415396,-1.94998 1.370541,-2.73315 3.304646,-3.2385 l 1.576916,-0.37835 c 0.838729,-0.21696 1.169459,-0.52917 1.322917,-1.21444 0.166687,-0.79375 -0.07673,-1.27 -0.963083,-1.27 -0.80698,0 -1.34673,0.52917 -1.518709,1.34937 l -0.0635,0.2884 z m 4.426479,2.00025 a 4.0692916,4.0692916 0 0 1 -1.246187,0.52917 c -1.127125,0.23018 -1.661584,0.75406 -1.852084,1.67746 -0.166687,0.79375 -0.01587,1.44197 0.695855,1.44197 a 2.032,2.032 0 0 0 1.976437,-1.5875 z"
         id="path3264" />
      <path
         style="fill:#003e7e;stroke-width:0.26458332"
         inkscape:connector-curvature="0"
         class="cls-1"
         d="m -82.677652,176.17222 h -0.0344 c -0.79375,0.96837 -1.60073,1.37054 -2.645834,1.37054 -2.17752,0 -2.841625,-1.5875 -2.021416,-5.45042 0.820208,-3.86292 2.161646,-5.44248 4.33652,-5.44248 1.000125,0 1.5875,0.40217 1.9685,1.22502 h 0.03969 l 0.926042,-4.34975 h 2.645833 l -2.910417,13.75834 h -2.542646 z m -1.373187,-0.6694 c 1.172104,0 1.651,-1.15888 2.116667,-3.41048 0.465666,-2.2516 0.49477,-3.40783 -0.682625,-3.40783 -1.177396,0 -1.629834,1.15623 -2.116667,3.40783 -0.486833,2.2516 -0.470958,3.41048 0.682625,3.41048 z"
         id="path3266" />
      <path
         style="fill:#003e7e;stroke-width:0.26458332"
         inkscape:connector-curvature="0"
         class="cls-1"
         d="m -75.581527,163.52513 h 2.645834 l -2.910417,13.75834 h -2.656417 z"
         id="path3268" />
      <path
         style="fill:#003e7e;stroke-width:0.26458332"
         inkscape:connector-curvature="0"
         class="cls-1"
         d="m -70.692027,172.49451 -0.169333,0.83873 c -0.264583,1.21179 -0.1905,2.40241 0.79375,2.40241 0.883708,0 1.391708,-0.66939 1.815042,-1.94204 h 2.38125 c -0.605896,2.40506 -2.050521,3.75444 -4.550834,3.75444 -3.849687,0 -3.373437,-2.96333 -2.823104,-5.55625 0.590021,-2.77019 1.674813,-5.34458 5.251979,-5.34458 3.103563,0 3.354917,2.07433 2.680229,5.24933 l -0.129645,0.59531 z m 3.050646,-1.5875 c 0.280458,-1.5875 0.264583,-2.46592 -0.8255,-2.46592 -1.058333,0 -1.5875,1.09802 -1.801812,2.0611 l -0.08467,0.40482 z"
         id="path3270" />
      <path
         style="fill:#003e7e;stroke-width:0.26458332"
         inkscape:connector-curvature="0"
         class="cls-1"
         d="m -65.363318,178.67517 a 3.8470416,3.8470416 0 0 0 0.679979,0.0556 c 0.978958,0 1.4605,-0.52917 1.733021,-1.45786 l -0.703792,-10.35579 h 2.767542 l 0.02117,7.15698 h 0.03969 l 2.868083,-7.14375 h 2.645833 l -4.556125,9.65994 c -1.68275,3.58246 -2.38125,4.08252 -4.849812,4.08252 h -1.063625 z"
         id="path3272" />
      <polygon
         transform="matrix(0.26458333,0,0,0.26458333,-204.02615,149.78532)"
         style="fill:#003e7e"
         class="cls-1"
         points="77.36,105.01 76.71,101.4 76.05,105.01 "
         id="polygon3276" />
      <rect
         style="fill:#003e7e;stroke-width:0.26458332"
         class="cls-1"
         x="-187.52937"
         y="176.52411"
         width="0.44714585"
         height="1.5028332"
         id="rect3278" />
      <path
         style="fill:#003e7e;stroke-width:0.26458332"
         inkscape:connector-curvature="0"
         class="cls-1"
         d="m -173.84248,174.99217 h -17.96786 a 0.396875,0.396875 0 0 0 -0.28046,0.67734 l 3.6195,3.6195 a 3.8629166,3.8629166 0 0 0 2.73315,1.13241 h 5.82083 a 3.8629166,3.8629166 0 0 0 2.73315,-1.13241 l 3.6195,-3.6195 a 0.396875,0.396875 0 0 0 -0.27781,-0.67734 z m -12.86934,3.05859 a 0.26458333,0.26458333 0 0 1 -0.2196,0.26458 0.28575,0.28575 0 0 0 0.1905,0.18785 v 0 0.10848 h -0.23813 a 0.70908332,0.70908332 0 0 1 -0.34925,-0.29104 h -0.30956 a 0.26458333,0.26458333 0 0 1 -0.26458,-0.26458 v -1.54781 a 0.26458333,0.26458333 0 0 1 0.26458,-0.26459 h 0.66411 a 0.26458333,0.26458333 0 0 1 0.26458,0.26459 z m 1.80446,0 a 0.26458333,0.26458333 0 0 1 -0.26458,0.26458 h -0.66146 a 0.26458333,0.26458333 0 0 1 -0.26458,-0.26458 v -1.80711 h 0.36777 v 1.78329 h 0.44714 v -1.78329 h 0.37042 z m 1.52665,0.26458 -0.10584,-0.45773 h -0.48683 l -0.10583,0.45773 h -0.36777 l 0.46831,-2.07169 h 0.49742 l 0.47889,2.06904 z m 1.778,0 h -0.92075 v -2.07169 h 0.37041 v 1.72509 h 0.55034 z m 0.81491,0 h -0.37041 v -2.07169 h 0.37041 z m 1.38377,-1.78329 h -0.29633 v 1.78329 h -0.37042 v -1.78329 h -0.29633 v -0.2884 h 0.96308 z m 1.24619,0.8255 v 0.95779 h -0.34396 v -0.95779 l -0.5715,-1.1139 h 0.41275 l 0.33073,0.71967 0.33073,-0.71967 h 0.41275 z"
         id="path3280" />
      <path
         style="fill:#003e7e;stroke-width:0.26458332"
         inkscape:connector-curvature="0"
         class="cls-1"
         d="m -177.47521,168.34849 h -1.79917 v -0.889 h 1.36525 a 0.60854166,0.60854166 0 0 0 0.55298,-0.52917 v -1.82033 a 0.64293749,0.64293749 0 0 0 -0.67204,-0.5768 h -2.08756 v 6.94796 h 2.66435 a 0.84137499,0.84137499 0 0 0 0.67733,-0.68527 v -1.75154 a 0.83608332,0.83608332 0 0 0 -0.70114,-0.69585 z"
         id="path3282" />
      <path
         style="fill:#003e7e;stroke-width:0.26458332"
         inkscape:connector-curvature="0"
         class="cls-1"
         d="m -172.93232,164.00403 -4.37091,-4.37356 a 3.4395833,3.4395833 0 0 0 -2.42359,-1.00278 h -6.19389 a 3.4395833,3.4395833 0 0 0 -2.42359,1.00278 l -4.37356,4.37356 a 3.4395833,3.4395833 0 0 0 -1.00542,2.42623 v 6.41879 a 1.3758333,1.3758333 0 0 0 1.37848,1.37583 h 19.03677 a 1.3784791,1.3784791 0 0 0 1.37848,-1.37848 v -6.41614 a 3.4395833,3.4395833 0 0 0 -1.00277,-2.42623 z m -12.48568,8.37406 c 0,0 0.0873,-0.18785 -0.12965,-0.75142 l -0.66146,-1.71979 h -2.25425 v -0.88635 h 1.94204 l -1.47108,-3.85498 -2.38125,6.5405 a 1.1879792,1.1879792 0 0 0 -0.0238,0.67204 h -1.39436 c 0.0661,0 0.26459,-0.12435 0.52917,-0.88635 l 2.78077,-7.88988 h 1.85208 l 3.22263,8.29733 c 0,0 0.16404,0.42334 0.34131,0.4789 z m 2.74372,-4.00579 h -1.29645 v -0.889 h 1.29645 z m 7.7523,2.47385 a 1.5345833,1.5345833 0 0 1 -1.53459,1.53459 h -5.69912 c 0.26458,-0.26459 0.21696,-0.88636 0.21696,-0.88636 v -6.75216 c 0,-0.90223 -0.2884,-1.14036 -0.2884,-1.14036 h 5.45306 a 1.444625,1.444625 0 0 1 1.37054,1.44198 v 1.60602 a 1.1403542,1.1403542 0 0 1 -1.14035,1.143 h 0.12171 a 1.4948958,1.4948958 0 0 1 1.50019,1.4949 z"
         id="path3284" />
      <path
         style="fill:#6d6e71;stroke-width:0.26458332"
         inkscape:connector-curvature="0"
         class="cls-2"
         d="m -127.35255,186.71851 a 2.555875,2.555875 0 0 1 -0.082,0.73818 1.0583333,1.0583333 0 0 1 -1.05833,0.79375 0.93927082,0.93927082 0 0 1 -0.42598,-0.0926 0.82549999,0.82549999 0 0 1 -0.32015,-0.26458 c 0,0 0,0 -0.0185,0 -0.0185,0 0,0 0,0.0132 v 0.25135 a 0.05291667,0.05291667 0 0 1 -0.0582,0.0582 h -0.29897 a 0.05027083,0.05027083 0 0 1 -0.0556,-0.0582 v -3.97669 c 0,-0.0397 0.0185,-0.0582 0.0556,-0.0582 h 0.29897 a 0.05291667,0.05291667 0 0 1 0.0582,0.0582 v 1.37319 a 0.015875,0.015875 0 0 0 0,0.0159 c 0,0 0.0132,0 0.0212,0 a 0.83343749,0.83343749 0 0 1 0.32015,-0.26459 0.94191665,0.94191665 0 0 1 0.42597,-0.0953 1.1086042,1.1086042 0 0 1 0.69321,0.21431 1.0821458,1.0821458 0 0 1 0.38365,0.58473 3.0188958,3.0188958 0 0 1 0.0609,0.70909 z m -0.43656,0.42862 a 2.9792083,2.9792083 0 0 0 0.0238,-0.42862 2.4473958,2.4473958 0 0 0 -0.0318,-0.44715 1.0080625,1.0080625 0 0 0 -0.10318,-0.28839 0.66410416,0.66410416 0 0 0 -0.24342,-0.30692 0.67997916,0.67997916 0 0 0 -0.40217,-0.11642 0.61647916,0.61647916 0 0 0 -0.381,0.11906 0.63764583,0.63764583 0 0 0 -0.23019,0.3175 1.0583333,1.0583333 0 0 0 -0.0847,0.28046 2.7013958,2.7013958 0 0 0 -0.0265,0.44186 2.6458333,2.6458333 0 0 0 0.0265,0.43391 1.158875,1.158875 0 0 0 0.0794,0.26459 0.71172916,0.71172916 0 0 0 0.23284,0.32808 0.62177083,0.62177083 0 0 0 0.38893,0.12171 0.74347916,0.74347916 0 0 0 0.42334,-0.12171 0.64029166,0.64029166 0 0 0 0.24606,-0.33337 0.95514582,0.95514582 0 0 0 0.082,-0.26459 z"
         id="path3288" />
      <path
         style="fill:#6d6e71;stroke-width:0.26458332"
         inkscape:connector-curvature="0"
         class="cls-2"
         d="m -126.73342,189.29819 v -0.23283 a 0.05027083,0.05027083 0 0 1 0.0582,-0.0582 h 0.0212 a 0.92868749,0.92868749 0 0 0 0.35454,-0.0661 0.52916666,0.52916666 0 0 0 0.21432,-0.22754 3.0691666,3.0691666 0 0 0 0.19579,-0.50536 c 0,-0.0159 0,-0.0265 0,-0.0344 l -0.98425,-2.86544 v -0.0238 c 0,-0.0265 0.0159,-0.0397 0.0503,-0.0397 h 0.30956 a 0.0714375,0.0714375 0 0 1 0.0714,0.0476 l 0.75671,2.35215 a 0.01322917,0.01322917 0 0 0 0.0159,0 0.02116667,0.02116667 0 0 0 0.0185,0 l 0.73555,-2.35215 a 0.06614583,0.06614583 0 0 1 0.0688,-0.0476 h 0.30427 c 0.0423,0 0.0582,0.0212 0.045,0.0635 l -1.07686,3.1406 a 2.841625,2.841625 0 0 1 -0.26458,0.57679 0.66410416,0.66410416 0 0 1 -0.30692,0.26459 1.4022916,1.4022916 0 0 1 -0.51593,0.0741 h -0.0397 c -0.0185,-0.008 -0.0318,-0.0265 -0.0318,-0.0661 z"
         id="path3290" />
      <path
         style="fill:#6d6e71;stroke-width:0.26458332"
         inkscape:connector-curvature="0"
         class="cls-2"
         d="m -120.66653,188.1499 -0.7276,-1.61396 a 0.03704167,0.03704167 0 0 0 -0.0344,-0.0238 h -0.54239 a 0.02645833,0.02645833 0 0 0 -0.0291,0.0291 v 1.5875 a 0.06614583,0.06614583 0 0 1 -0.0185,0.0503 0.07672917,0.07672917 0 0 1 -0.0503,0.0212 h -0.68262 a 0.06614583,0.06614583 0 0 1 -0.0476,-0.0212 0.05820833,0.05820833 0 0 1 -0.0212,-0.0503 v -3.94759 a 0.06614583,0.06614583 0 0 1 0.0212,-0.0503 0.0635,0.0635 0 0 1 0.0476,-0.0185 h 1.66687 a 1.381125,1.381125 0 0 1 0.65617,0.15081 1.0583333,1.0583333 0 0 1 0.43656,0.43127 1.3229166,1.3229166 0 0 1 0.15346,0.64559 1.1535833,1.1535833 0 0 1 -0.19844,0.67998 1.0583333,1.0583333 0 0 1 -0.55298,0.39687 0.03439583,0.03439583 0 0 0 -0.0185,0.0423 l 0.79375,1.64835 a 0.079375,0.079375 0 0 1 0,0.0344 q 0,0.0476 -0.0635,0.0476 h -0.71702 a 0.0873125,0.0873125 0 0 1 -0.0714,-0.0397 z m -1.32291,-3.29141 v 0.99483 c 0,0.0212 0,0.0318 0.0291,0.0318 h 0.74877 a 0.57149999,0.57149999 0 0 0 0.39952,-0.14552 0.51064583,0.51064583 0 0 0 0.15346,-0.381 0.52916666,0.52916666 0 0 0 -0.15346,-0.381 0.56091666,0.56091666 0 0 0 -0.39952,-0.14817 h -0.76464 a 0.02645833,0.02645833 0 0 0 -0.0291,0.0185 z"
         id="path3292" />
      <path
         style="fill:#6d6e71;stroke-width:0.26458332"
         inkscape:connector-curvature="0"
         class="cls-2"
         d="m -118.59484,188.07053 a 1.3520208,1.3520208 0 0 1 -0.52917,-0.52917 1.524,1.524 0 0 1 -0.1905,-0.76994 v -1.24089 a 1.5107708,1.5107708 0 0 1 0.1905,-0.76465 1.3705416,1.3705416 0 0 1 0.52917,-0.52916 1.6906875,1.6906875 0 0 1 0.79375,-0.18257 1.7118541,1.7118541 0 0 1 0.80698,0.18257 1.3440833,1.3440833 0 0 1 0.52917,0.52916 1.4869583,1.4869583 0 0 1 0.19314,0.76465 v 1.24619 a 1.5266458,1.5266458 0 0 1 -0.19314,0.77522 1.3229166,1.3229166 0 0 1 -0.52917,0.52917 1.7118541,1.7118541 0 0 1 -0.80698,0.18256 1.6906875,1.6906875 0 0 1 -0.79375,-0.19314 z m 1.32292,-0.72496 a 0.74612499,0.74612499 0 0 0 0.19579,-0.52917 v -1.28323 a 0.75670832,0.75670832 0 0 0 -0.19315,-0.52916 0.68262499,0.68262499 0 0 0 -0.52916,-0.20638 0.67468749,0.67468749 0 0 0 -0.50271,0.17727 0.75670832,0.75670832 0 0 0 -0.19579,0.52917 v 1.28323 a 0.74612499,0.74612499 0 0 0 0.19579,0.52917 0.67468749,0.67468749 0 0 0 0.51594,0.20637 0.69056249,0.69056249 0 0 0 0.51064,-0.16669 z"
         id="path3294" />
      <path
         style="fill:#6d6e71;stroke-width:0.26458332"
         inkscape:connector-curvature="0"
         class="cls-2"
         d="m -114.99386,188.05994 a 1.2805833,1.2805833 0 0 1 -0.52917,-0.49741 1.4472708,1.4472708 0 0 1 -0.1852,-0.74084 v -1.34408 a 1.4472708,1.4472708 0 0 1 0.1852,-0.74083 1.2752917,1.2752917 0 0 1 0.52917,-0.49477 1.9314583,1.9314583 0 0 1 1.5875,0 1.2620625,1.2620625 0 0 1 0.52917,0.47096 1.3229166,1.3229166 0 0 1 0.18785,0.70908 c 0,0.0344 -0.0238,0.0556 -0.0688,0.0635 l -0.68263,0.0397 v 0 c -0.0397,0 -0.0582,-0.0212 -0.0582,-0.0635 a 0.65881249,0.65881249 0 0 0 -0.1905,-0.49477 0.67204166,0.67204166 0 0 0 -0.49742,-0.18521 0.67997916,0.67997916 0 0 0 -0.50271,0.18521 0.65881249,0.65881249 0 0 0 -0.1905,0.49477 v 1.40493 a 0.64558333,0.64558333 0 0 0 0.1905,0.48684 0.68262499,0.68262499 0 0 0 0.50271,0.18785 0.67468749,0.67468749 0 0 0 0.49742,-0.18785 0.64558333,0.64558333 0 0 0 0.1905,-0.48684 c 0,-0.045 0.0238,-0.0635 0.0688,-0.0635 l 0.68262,0.0265 a 0.07672917,0.07672917 0 0 1 0.0476,0.0185 0.047625,0.047625 0 0 1 0.0212,0.0397 1.349375,1.349375 0 0 1 -0.18785,0.71173 1.2805833,1.2805833 0 0 1 -0.52917,0.4789 1.7647708,1.7647708 0 0 1 -0.79375,0.16668 1.7171458,1.7171458 0 0 1 -0.80433,-0.18521 z"
         id="path3296" />
      <path
         style="fill:#6d6e71;stroke-width:0.26458332"
         inkscape:connector-curvature="0"
         class="cls-2"
         d="m -112.06492,188.17107 a 0.05820833,0.05820833 0 0 1 -0.0212,-0.0503 v -3.93965 a 0.06614583,0.06614583 0 0 1 0.0212,-0.0503 0.0635,0.0635 0 0 1 0.0476,-0.0185 h 0.68263 a 0.0635,0.0635 0 0 1 0.0688,0.0688 v 1.62984 c 0,0.0132 0,0.0212 0.0132,0.0212 0.0132,0 0.0132,0 0.0238,0 l 1.34408,-1.67216 a 0.11377083,0.11377083 0 0 1 0.0873,-0.0397 h 0.76993 c 0.0291,0 0.0503,0 0.0582,0.0265 a 0.0714375,0.0714375 0 0 1 0,0.0608 l -1.2991,1.65894 a 0.03704167,0.03704167 0 0 0 0,0.0423 l 1.37583,2.20663 a 0.21166666,0.21166666 0 0 1 0,0.0397 c 0,0.0291 -0.0185,0.0423 -0.0582,0.0423 h -0.76729 a 0.08202083,0.08202083 0 0 1 -0.082,-0.0476 l -1.03717,-1.67746 a 0.02116667,0.02116667 0 0 0 -0.0185,0 0.03175,0.03175 0 0 0 -0.0238,0 l -0.36512,0.46038 a 0.09525,0.09525 0 0 0 -0.0132,0.0344 v 1.15887 a 0.06614583,0.06614583 0 0 1 -0.0185,0.0503 0.07672917,0.07672917 0 0 1 -0.0503,0.0212 h -0.68263 a 0.06614583,0.06614583 0 0 1 -0.0556,-0.0265 z"
         id="path3298" />
      <path
         style="fill:#6d6e71;stroke-width:0.26458332"
         inkscape:connector-curvature="0"
         class="cls-2"
         d="m -107.61992,188.13403 -1.02923,-3.95288 v -0.0212 c 0,-0.037 0.0238,-0.0529 0.0661,-0.0529 h 0.72232 a 0.0714375,0.0714375 0 0 1 0.0741,0.0582 l 0.55298,2.38125 c 0,0.0159 0,0.0238 0.0185,0.0238 0.0185,0 0.0132,0 0.0185,-0.0238 l 0.52917,-2.36538 a 0.07672917,0.07672917 0 0 1 0.0767,-0.0635 h 0.70379 a 0.07672917,0.07672917 0 0 1 0.082,0.0582 l 0.58208,2.38125 c 0,0 0,0.0185 0.0185,0.0185 0.0185,0 0.0132,0 0.0159,-0.0185 l 0.52917,-2.36537 a 0.07408333,0.07408333 0 0 1 0.0767,-0.0635 h 0.68528 c 0.0556,0 0.0767,0.0238 0.0661,0.0741 l -0.95779,3.94494 a 0.07672917,0.07672917 0 0 1 -0.0794,0.0582 h -0.6932 a 0.07408333,0.07408333 0 0 1 -0.0767,-0.0582 l -0.59532,-2.52148 q 0,-0.0238 -0.0159,-0.0238 c 0,0 -0.0132,0 -0.0185,0.0238 l -0.55298,2.51619 a 0.06879167,0.06879167 0 0 1 -0.0741,0.0635 h -0.64823 a 0.079375,0.079375 0 0 1 -0.0767,-0.0714 z"
         id="path3300" />
      <path
         style="fill:#6d6e71;stroke-width:0.26458332"
         inkscape:connector-curvature="0"
         class="cls-2"
         d="m -100.55819,184.79763 a 0.05820833,0.05820833 0 0 1 -0.0476,0.0212 h -1.91029 a 0.02645833,0.02645833 0 0 0 -0.0291,0.0291 v 0.90223 c 0,0.0212 0,0.0291 0.0291,0.0291 h 1.25148 a 0.0714375,0.0714375 0 0 1 0.0503,0.0212 0.06614583,0.06614583 0 0 1 0.0185,0.0503 v 0.56357 a 0.06614583,0.06614583 0 0 1 -0.0185,0.0503 0.0714375,0.0714375 0 0 1 -0.0503,0.0212 h -1.25148 c -0.0212,0 -0.0291,0 -0.0291,0.0291 v 0.94191 c 0,0.0212 0,0.0291 0.0291,0.0291 h 1.91029 a 0.06614583,0.06614583 0 0 1 0.0476,0.0212 0.0635,0.0635 0 0 1 0.0212,0.0503 v 0.56356 a 0.05820833,0.05820833 0 0 1 -0.0212,0.0503 0.06614583,0.06614583 0 0 1 -0.0476,0.0212 h -2.69081 a 0.0714375,0.0714375 0 0 1 -0.0714,-0.0714 v -3.93965 a 0.07672917,0.07672917 0 0 1 0.0212,-0.0503 0.06614583,0.06614583 0 0 1 0.0503,-0.0185 h 2.69081 a 0.0635,0.0635 0 0 1 0.0476,0.0185 0.06614583,0.06614583 0 0 1 0.0212,0.0503 v 0.56621 a 0.05820833,0.05820833 0 0 1 -0.0212,0.0503 z"
         id="path3302" />
      <path
         style="fill:#6d6e71;stroke-width:0.26458332"
         inkscape:connector-curvature="0"
         class="cls-2"
         d="m -99.94436,188.17107 a 0.06879167,0.06879167 0 0 1 -0.02117,-0.0503 v -3.93965 a 0.07672917,0.07672917 0 0 1 0.02117,-0.0503 0.0635,0.0635 0 0 1 0.04762,-0.0185 h 0.682625 a 0.0635,0.0635 0 0 1 0.06879,0.0688 v 3.2729 a 0.02645833,0.02645833 0 0 0 0.0291,0.0291 h 1.905 a 0.0714375,0.0714375 0 0 1 0.07144,0.0714 v 0.56356 a 0.06879167,0.06879167 0 0 1 -0.02117,0.0503 0.0714375,0.0714375 0 0 1 -0.05027,0.0212 h -2.685521 a 0.06614583,0.06614583 0 0 1 -0.04762,-0.0185 z"
         id="path3304" />
      <path
         style="fill:#6d6e71;stroke-width:0.26458332"
         inkscape:connector-curvature="0"
         class="cls-2"
         d="m -96.605318,188.17107 a 0.06879167,0.06879167 0 0 1 -0.02117,-0.0503 v -3.93965 a 0.07672917,0.07672917 0 0 1 0.02117,-0.0503 0.06614583,0.06614583 0 0 1 0.05027,-0.0185 h 0.679979 a 0.06614583,0.06614583 0 0 1 0.05027,0.0185 0.07672917,0.07672917 0 0 1 0.02117,0.0503 v 3.2729 c 0,0.0212 0,0.0291 0.02911,0.0291 h 1.902354 a 0.06879167,0.06879167 0 0 1 0.05027,0.0212 0.0714375,0.0714375 0 0 1 0.02117,0.0503 v 0.56356 a 0.0714375,0.0714375 0 0 1 -0.07144,0.0714 h -2.690813 a 0.06879167,0.06879167 0 0 1 -0.04233,-0.0185 z"
         id="path3306" />
      <path
         style="fill:#6d6e71;stroke-width:0.26458332"
         inkscape:connector-curvature="0"
         class="cls-2"
         d="m -89.620318,188.13403 -0.174625,-0.5715 c 0,-0.0159 -0.01852,-0.0238 -0.0291,-0.0238 h -1.434042 c 0,0 -0.02117,0 -0.0291,0.0238 l -0.169333,0.5715 a 0.07408333,0.07408333 0 0 1 -0.07408,0.0582 h -0.740833 a 0.06879167,0.06879167 0 0 1 -0.05292,-0.0212 0.06614583,0.06614583 0 0 1 0,-0.0608 l 1.254125,-3.92907 a 0.0714375,0.0714375 0 0 1 0.07408,-0.0582 h 0.915458 a 0.07672917,0.07672917 0 0 1 0.07673,0.0582 l 1.256771,3.937 a 0.05291667,0.05291667 0 0 1 0,0.0291 c 0,0.0344 -0.02117,0.0529 -0.0635,0.0529 h -0.740833 a 0.07408333,0.07408333 0 0 1 -0.06879,-0.0661 z m -1.42875,-1.23031 h 1.026583 c 0.02381,0 0.0291,0 0.02381,-0.0344 l -0.529167,-1.73038 c 0,-0.0159 0,-0.0212 -0.01587,-0.0212 -0.01588,0 0,0 -0.01852,0.0212 l -0.510646,1.73038 c -0.0079,0.0238 0,0.0344 0.02381,0.0344 z"
         id="path3308" />
      <path
         style="fill:#6d6e71;stroke-width:0.26458332"
         inkscape:connector-curvature="0"
         class="cls-2"
         d="m -87.609485,188.06259 a 1.27,1.27 0 0 1 -0.529166,-0.49212 1.3917083,1.3917083 0 0 1 -0.1905,-0.73025 v -2.65907 a 0.07672917,0.07672917 0 0 1 0.02117,-0.0503 0.0635,0.0635 0 0 1 0.04762,-0.0185 h 0.682625 a 0.06879167,0.06879167 0 0 1 0.05027,0.0185 0.07408333,0.07408333 0 0 1 0.01852,0.0503 v 2.66171 a 0.68791666,0.68791666 0 1 0 1.375833,0 v -2.66171 a 0.07672917,0.07672917 0 0 1 0.02117,-0.0503 0.0635,0.0635 0 0 1 0.04762,-0.0185 h 0.682625 a 0.0635,0.0635 0 0 1 0.06879,0.0688 v 2.64584 a 1.4155208,1.4155208 0 0 1 -0.187855,0.73025 1.2911667,1.2911667 0 0 1 -0.529166,0.49212 1.8679583,1.8679583 0 0 1 -1.5875,0 z"
         id="path3310" />
      <path
         style="fill:#6d6e71;stroke-width:0.26458332"
         inkscape:connector-curvature="0"
         class="cls-2"
         d="m -81.788652,184.13353 a 0.07408333,0.07408333 0 0 1 0.01852,0.0503 v 0.5715 a 0.0635,0.0635 0 0 1 -0.06879,0.0688 h -1.042459 a 0.02645833,0.02645833 0 0 0 -0.0291,0.0291 v 3.26761 a 0.0714375,0.0714375 0 0 1 -0.07144,0.0714 h -0.67998 a 0.0714375,0.0714375 0 0 1 -0.05027,-0.0212 0.06614583,0.06614583 0 0 1 -0.01852,-0.0503 v -3.26761 a 0.02645833,0.02645833 0 0 0 -0.0291,-0.0291 h -1.013355 a 0.06614583,0.06614583 0 0 1 -0.05027,-0.0185 0.0714375,0.0714375 0 0 1 -0.02117,-0.0503 v -0.57415 a 0.07672917,0.07672917 0 0 1 0.02117,-0.0503 0.06614583,0.06614583 0 0 1 0.05027,-0.0185 h 2.93423 a 0.06879167,0.06879167 0 0 1 0.05027,0.0212 z"
         id="path3312" />
      <path
         style="fill:#6d6e71;stroke-width:0.26458332"
         inkscape:connector-curvature="0"
         class="cls-2"
         d="m -80.754131,188.07053 a 1.3229166,1.3229166 0 0 1 -0.529166,-0.52917 1.5001875,1.5001875 0 0 1 -0.193146,-0.76994 v -1.24089 a 1.4869583,1.4869583 0 0 1 0.193146,-0.76465 1.3440833,1.3440833 0 0 1 0.529166,-0.52916 1.8520833,1.8520833 0 0 1 1.608667,0 1.3440833,1.3440833 0 0 1 0.529167,0.52916 1.4869583,1.4869583 0 0 1 0.193145,0.76465 v 1.24619 a 1.5266458,1.5266458 0 0 1 -0.193145,0.77522 1.3229166,1.3229166 0 0 1 -0.529167,0.52917 1.8520833,1.8520833 0 0 1 -1.608667,0 z m 1.322917,-0.72496 a 0.73818749,0.73818749 0 0 0 0.198437,-0.52917 v -1.28323 a 0.75670832,0.75670832 0 0 0 -0.195791,-0.52916 0.68262499,0.68262499 0 0 0 -0.529167,-0.20638 0.67468749,0.67468749 0 0 0 -0.508,0.17727 0.75670832,0.75670832 0 0 0 -0.193146,0.52917 v 1.28323 a 0.74612499,0.74612499 0 0 0 0.193146,0.52917 0.67468749,0.67468749 0 0 0 0.515938,0.20637 0.68527082,0.68527082 0 0 0 0.515937,-0.16669 z"
         id="path3314" />
      <path
         style="fill:#6d6e71;stroke-width:0.26458332"
         inkscape:connector-curvature="0"
         class="cls-2"
         d="m -75.08411,184.11501 h 0.682625 a 0.0635,0.0635 0 0 1 0.04762,0.0185 0.07672917,0.07672917 0 0 1 0.02117,0.0503 v 3.937 a 0.06879167,0.06879167 0 0 1 -0.02117,0.0503 0.06614583,0.06614583 0 0 1 -0.04762,0.0212 h -0.682625 a 0.06614583,0.06614583 0 0 1 -0.04763,-0.0212 0.05820833,0.05820833 0 0 1 -0.02117,-0.0503 v -2.56646 c 0,-0.0159 0,-0.0238 -0.01323,-0.0238 -0.01323,0 0,0 -0.02381,0.0159 l -0.616479,0.96838 a 0.08995833,0.08995833 0 0 1 -0.08202,0.045 h -0.343959 a 0.08995833,0.08995833 0 0 1 -0.07938,-0.045 l -0.619125,-0.96838 c 0,0 -0.01587,-0.0159 -0.02117,0 -0.0053,0.0159 0,0 0,0.0265 v 2.56117 a 0.06614583,0.06614583 0 0 1 -0.01852,0.0503 0.07672917,0.07672917 0 0 1 -0.05027,0.0212 h -0.682625 a 0.07672917,0.07672917 0 0 1 -0.05027,-0.0212 0.06614583,0.06614583 0 0 1 -0.01852,-0.0503 v -3.95288 a 0.0635,0.0635 0 0 1 0.06879,-0.0688 h 0.677333 a 0.09789583,0.09789583 0 0 1 0.08202,0.045 l 0.873125,1.35731 c 0,0.0238 0.02381,0.0238 0.0344,0 l 0.878417,-1.35731 a 0.09789583,0.09789583 0 0 1 0.07408,-0.0423 z"
         id="path3316" />
      <path
         style="fill:#6d6e71;stroke-width:0.26458332"
         inkscape:connector-curvature="0"
         class="cls-2"
         d="m -71.104777,188.13403 -0.174625,-0.5715 c 0,-0.0159 -0.01852,-0.0238 -0.0291,-0.0238 h -1.434041 c 0,0 -0.02117,0 -0.02911,0.0238 l -0.169333,0.5715 a 0.07408333,0.07408333 0 0 1 -0.07408,0.0582 H -73.7559 a 0.06879167,0.06879167 0 0 1 -0.05292,-0.0212 0.06614583,0.06614583 0 0 1 0,-0.0608 l 1.254125,-3.92907 a 0.06879167,0.06879167 0 0 1 0.07408,-0.0582 h 0.915458 a 0.0714375,0.0714375 0 0 1 0.07408,0.0582 l 1.259416,3.937 a 0.09525,0.09525 0 0 1 0,0.0291 c 0,0.0344 -0.02117,0.0529 -0.0635,0.0529 h -0.740833 a 0.07408333,0.07408333 0 0 1 -0.06879,-0.0661 z m -1.423458,-1.23031 h 1.026583 c 0.02117,0 0.0291,0 0.02117,-0.0344 l -0.529167,-1.73038 c 0,-0.0159 0,-0.0212 -0.01587,-0.0212 -0.01588,0 -0.01323,0 -0.01852,0.0212 l -0.513292,1.73038 c -0.0079,0.0238 0,0.0344 0.0291,0.0344 z"
         id="path3318" />
      <path
         style="fill:#6d6e71;stroke-width:0.26458332"
         inkscape:connector-curvature="0"
         class="cls-2"
         d="m -67.352985,184.13353 a 0.06614583,0.06614583 0 0 1 0.02117,0.0503 v 0.5715 a 0.0635,0.0635 0 0 1 -0.02117,0.0503 0.0635,0.0635 0 0 1 -0.04762,0.0185 h -1.042458 a 0.02645833,0.02645833 0 0 0 -0.02911,0.0291 v 3.26761 a 0.0714375,0.0714375 0 0 1 -0.07144,0.0714 h -0.679979 a 0.0714375,0.0714375 0 0 1 -0.07144,-0.0714 v -3.26761 a 0.02645833,0.02645833 0 0 0 -0.0291,-0.0291 h -1.013354 a 0.0635,0.0635 0 0 1 -0.04762,-0.0185 0.0635,0.0635 0 0 1 -0.02117,-0.0503 v -0.57415 a 0.06614583,0.06614583 0 0 1 0.02117,-0.0503 0.0635,0.0635 0 0 1 0.04762,-0.0185 h 2.936875 a 0.0635,0.0635 0 0 1 0.04762,0.0212 z"
         id="path3320" />
      <path
         style="fill:#6d6e71;stroke-width:0.26458332"
         inkscape:connector-curvature="0"
         class="cls-2"
         d="m -66.786777,188.17107 a 0.06879167,0.06879167 0 0 1 -0.02117,-0.0503 v -3.93965 a 0.07672917,0.07672917 0 0 1 0.02117,-0.0503 0.06614583,0.06614583 0 0 1 0.05027,-0.0185 h 0.679979 a 0.06614583,0.06614583 0 0 1 0.05027,0.0185 0.07672917,0.07672917 0 0 1 0.02117,0.0503 v 3.937 a 0.0714375,0.0714375 0 0 1 -0.07144,0.0714 h -0.679979 a 0.06879167,0.06879167 0 0 1 -0.05027,-0.0185 z"
         id="path3322" />
      <path
         style="fill:#6d6e71;stroke-width:0.26458332"
         inkscape:connector-curvature="0"
         class="cls-2"
         d="m -64.625131,188.07053 a 1.3361458,1.3361458 0 0 1 -0.529167,-0.52917 1.5266458,1.5266458 0 0 1 -0.193145,-0.76994 v -1.24089 a 1.5134166,1.5134166 0 0 1 0.193145,-0.76465 1.3520208,1.3520208 0 0 1 0.529167,-0.52916 1.6880416,1.6880416 0 0 1 0.79375,-0.18257 1.7039166,1.7039166 0 0 1 0.806979,0.18257 1.3229166,1.3229166 0 0 1 0.529167,0.52916 1.5134166,1.5134166 0 0 1 0.193146,0.76465 v 1.24619 a 1.5531041,1.5531041 0 0 1 -0.193146,0.77522 1.3229166,1.3229166 0 0 1 -0.529167,0.52917 1.8520833,1.8520833 0 0 1 -1.606021,0 z m 1.322917,-0.72496 a 0.73818749,0.73818749 0 0 0 0.198437,-0.52917 v -1.28323 a 0.74612499,0.74612499 0 0 0 -0.195791,-0.52916 0.75141666,0.75141666 0 0 0 -1.034521,0 0.74612499,0.74612499 0 0 0 -0.195792,0.52916 v 1.28323 a 0.73554166,0.73554166 0 0 0 0.195792,0.52917 0.67468749,0.67468749 0 0 0 0.513291,0.20637 0.68527082,0.68527082 0 0 0 0.513292,-0.19579 z"
         id="path3324" />
      <path
         style="fill:#6d6e71;stroke-width:0.26458332"
         inkscape:connector-curvature="0"
         class="cls-2"
         d="m -59.299068,184.13353 a 0.06614583,0.06614583 0 0 1 0.05027,-0.0185 h 0.67998 a 0.06879167,0.06879167 0 0 1 0.05027,0.0185 0.07408333,0.07408333 0 0 1 0.01852,0.0503 v 3.937 a 0.06614583,0.06614583 0 0 1 -0.01852,0.0503 0.0714375,0.0714375 0 0 1 -0.05027,0.0212 h -0.658813 a 0.079375,0.079375 0 0 1 -0.07937,-0.0476 l -1.510771,-2.49237 c 0,0 -0.01588,-0.0159 -0.02117,-0.0159 -0.0053,0 -0.01323,0 -0.01323,0.0265 l 0.01323,2.45798 a 0.0714375,0.0714375 0 0 1 -0.07144,0.0714 h -0.679979 a 0.0714375,0.0714375 0 0 1 -0.07144,-0.0714 v -3.93965 a 0.07672917,0.07672917 0 0 1 0.02117,-0.0503 0.06614583,0.06614583 0 0 1 0.05027,-0.0185 h 0.656167 a 0.08466667,0.08466667 0 0 1 0.08202,0.045 l 1.502834,2.48179 c 0,0 0.01588,0.0185 0.02381,0.0159 0.0079,-0.003 0,0 0,-0.0265 v -2.4474 a 0.07672917,0.07672917 0 0 1 0.02646,-0.0476 z"
         id="path3326" />
    </g>
  </g>
</svg>
